<?xml version="1.0" encoding="utf-8"?>
<!-- Generator: Adobe Illustrator 19.2.0, SVG Export Plug-In . SVG Version: 6.00 Build 0)  -->
<svg version="1.1" id="Layer_1" xmlns:sketch="http://www.bohemiancoding.com/sketch/ns"
	 xmlns="http://www.w3.org/2000/svg" xmlns:xlink="http://www.w3.org/1999/xlink" x="0px" y="0px" viewBox="0 0 291 291"
	 style="enable-background:new 0 0 291 291;" xml:space="preserve">
<style type="text/css">
	.st0{display:none;}
	.st1{display:inline;}
	.st2{fill:#F6BAD6;}
	.st3{fill:#C9E3CC;}
</style>
<title>05-02-2015 - baloon</title>
<desc>Created with Sketch.</desc>
<g sketch:type="MSPage" class="st0">
	<g sketch:type="MSArtboardGroup" class="st1">
		<path sketch:type="MSShapeGroup" class="st2" d="M110,158.2h2.4v81.9H110V158.2z M118.9,150.2c27.5-3.9,48.7-28.3,48.7-57.8
			c0-32.2-25.2-58.3-56.3-58.3S54.9,60.2,54.9,92.4c0,29.5,21.2,53.9,48.7,57.8c-3.9,2.9-9.9,8-4.6,8c7.3,0,7.3-2.5,7.3-2.5
			s2.4,2.5,4.9,2.5c2.4,0,4.9-2.5,4.9-2.5s0,2.5,7.3,2.5C128.7,158.2,122.7,153.1,118.9,150.2L118.9,150.2z M91.7,44
			c0,0-19.6,9.9-24.5,24.8c0,17.4,2.4-2.5,24.5-17.4S91.7,44,91.7,44z"/>
	</g>
</g>
<title>05-02-2015 - baloon</title>
<desc>Created with Sketch.</desc>
<g sketch:type="MSPage" class="st0">
	<g sketch:type="MSArtboardGroup" class="st1">
		<path sketch:type="MSShapeGroup" class="st3" d="M188.6,186.6h1.7v56.1h-1.7V186.6z M194.7,181.1c18.8-2.6,33.3-19.3,33.3-39.6
			c0-22-17.3-39.9-38.5-39.9s-38.5,17.9-38.5,39.9c0,20.2,14.5,36.9,33.3,39.6c-2.6,2-6.8,5.5-3.2,5.5c5,0,5-1.7,5-1.7
			s1.7,1.7,3.4,1.7c1.7,0,3.4-1.7,3.4-1.7s0,1.7,5,1.7C201.4,186.6,197.3,183.1,194.7,181.1L194.7,181.1z M176.1,108.5
			c0,0-13.4,6.8-16.8,17c0,11.9,1.7-1.7,16.8-11.9C191.1,103.4,176.1,108.5,176.1,108.5z"/>
	</g>
</g>
<g>
	<g>
		<path class="st2" d="M47.2,218.2v-71.5l95.3-72.1l-68.2,75.4v71.4C59.3,220.8,50.8,219.9,47.2,218.2z"/>
	</g>
	<g>
		<line class="st2" x1="142.5" y1="74.6" x2="74.3" y2="150.1"/>
		<line class="st2" x1="142.5" y1="74.6" x2="47.2" y2="146.7"/>
		<line class="st2" x1="47.2" y1="146.7" x2="47.2" y2="218.2"/>
		<line class="st2" x1="74.3" y1="150.1" x2="74.3" y2="221.5"/>
		<path class="st2" d="M47.2,218.2c3.6,1.6,12.1,2.6,27.1,3.2"/>
	</g>
</g>
<g>
	<g>
		<path class="st2" d="M243,216.2c-15.2,2-20.2,3.7-30.3,5.2v-71.4l-70.2-75.4L243,145.3V216.2z"/>
	</g>
	<g>
		<line class="st2" x1="142.4" y1="74.6" x2="212.7" y2="150.1"/>
		<line class="st2" x1="212.7" y1="150.1" x2="212.7" y2="221.5"/>
		<line class="st2" x1="142.4" y1="74.6" x2="243" y2="145.3"/>
		<line class="st2" x1="243" y1="145.3" x2="243" y2="216.2"/>
		<path class="st2" d="M212.7,221.5c10.2-1.6,15.2-3.2,30.3-5.2"/>
	</g>
</g>
<g>
	<g>
		<path class="st3" d="M143.3,75.8l30.3,77v71.7c-32,1.7-58.6,0-58.6-0.1v-72.1l26.7-76V56.9l-23.1-2.4l23.1-9.6v-2.7h1.7
			C143.3,42.2,143.3,75.8,143.3,75.8z"/>
	</g>
	<g>
		<line class="st2" x1="141.5" y1="44.9" x2="118.5" y2="54.5"/>
		<line class="st2" x1="118.5" y1="54.5" x2="141.5" y2="56.9"/>
		<line class="st2" x1="141.5" y1="56.9" x2="141.5" y2="76.4"/>
		<line class="st2" x1="141.5" y1="44.9" x2="141.5" y2="42.2"/>
		<line class="st2" x1="141.5" y1="42.2" x2="143.3" y2="42.2"/>
		<polyline class="st2" points="143.3,42.2 143.3,75.8 143.3,76.4 		"/>
		<line class="st2" x1="141.5" y1="76.4" x2="114.9" y2="152.4"/>
		<line class="st2" x1="114.9" y1="152.4" x2="114.9" y2="224.5"/>
		<line class="st2" x1="173.5" y1="224.6" x2="173.5" y2="152.9"/>
		<line class="st2" x1="173.5" y1="152.9" x2="143.3" y2="75.8"/>
		<path class="st2" d="M114.9,224.5c0,0,26.7,1.7,58.6,0.1"/>
	</g>
</g>
</svg>
